<svg version="1.1" id="Layer_1" xmlns="http://www.w3.org/2000/svg" xmlns:xlink="http://www.w3.org/1999/xlink" x="0px" y="0px" viewBox="0 0 1200 1200" enable-background="new 0 0 1200 1200" xml:space="preserve">
<path fill="#D85050" d="M748.582,714.815c34.681-2.173,65.879,14.753,93.383,29.683c37.846,20.546,62.324,32.227,87.493,14.16&#10;&#9;c1.769-1.269,3.947-1.824,6.114-1.518c0.274,0.04,30.305,3.605,55.146-18.25c23.44-20.62,35.323-56.704,35.323-107.256&#10;&#9;c0-138.553-57.07-224.016-113.447-236.827c-29.191-6.641-49.383,2.419-61.182,11.185c-15.081,11.202-25.199,28.877-26.401,46.126&#10;&#9;c-0.395,5.639-6.179,9.142-11.238,7.467c-20.014-6.625-44.914-0.241-60.324,13.455c-4.168,3.705-9.326,8.585-14.779,4.057&#10;&#9;c-3.722-3.09-4.572-8.847-1.074-12.44c3.629-3.726,7.354-6.867,11.115-9.594c-10.879-21.822-30.524-36.879-55.757-34.572&#10;&#9;c-5.49,0.502-15.197,2.69-16.966-4.823c-1.104-4.686,2.29-10.096,7.048-10.947c0.008-0.001,0.743-0.133,0.743-0.133&#10;&#9;c34.116-6.274,62.725,8.999,79.683,42.014c18.139-7.876,35.508-7.117,45.928-5.43c3.971-18.879,15.432-36.64,31.87-48.85&#10;&#9;c15.702-11.662,34.81-17.357,55.194-16.705c-24.777-31.336-95.304-101.297-234.433-107.174&#10;&#9;c-62.308,0.053-95.434,27.196-95.762,27.47c-2.388,1.999-5.695,2.554-8.598,1.42c-1.028-0.402-104.332-39.56-175.686,26.859&#10;&#9;c-0.846,0.857-19.618,20.336-26.868,62.741c39.268,3.66,54.711,28.513,55.394,29.653c4.641,7.734-4.034,15.934-11.39,11.468&#10;&#9;c-5.688-3.453-8.882-9.71-14.265-13.45c-11.492-7.985-25.658-11.13-39.492-11.133c-37.274,0.004-52.523,16.941-52.666,17.112&#10;&#9;c-7.071,8.437-20.08-2.554-13.045-10.941c0.754-0.9,17.929-20.755,58.301-22.974c3.723-23.662,10.71-41.293,17.267-53.454&#10;&#9;c-51.957,17.589-176.307,70.936-201.88,184.723c20.598-15.592,55.474-34.445,90.043-18.554c10.015,4.608,2.828,20.043-7.114,15.47&#10;&#9;c-41.842-19.245-88.209,30.161-88.65,30.67c-0.038,0.044-0.086,0.073-0.125,0.116c-0.049,0.055-0.087,0.118-0.138,0.172&#10;&#9;c-0.248,0.264-26.504,28.828-26.504,74.589c0,14.72,3.03,65.036,42.002,94.49c34.227,25.868,86.695,29.409,155.896,10.675&#10;&#9;c5.195-31.201,20.78-58.303,39.778-83.096c4.607-6.013,61.226-67.717,65.04-63.153c-10.208-12.215-28.325-17.101-43.29-11.677&#10;&#9;c-4.906,1.778-13.281,5.427-18.34,2.519c-8.428-4.845,1.254-14.472,6.448-16.727c22.966-9.972,51.953-3.773,68.831,14.722&#10;&#9;c22.126-16.096,45.187-30.908,69.027-44.335c-1.408-19.561,1.492-39.42,8.436-57.761c1.642-4.337,5.079-10.805,10.509-10.807&#10;&#9;c5.002-0.002,8.019,5.347,7.876,9.827c-0.289,9.062-5.7,17.065-7.877,25.689c-1.558,6.174-2.196,12.524-2.16,18.883&#10;&#9;c0.034,5.92,2.163,12.052,1.376,17.883c-1.294,9.581-14.97,14.215-22.208,18.61c-28.753,17.457-57.45,36.353-82.885,57.969&#10;&#9;c-38.418,32.649-78.429,77.033-84.484,129.218c-0.005,0.041-0.02,0.079-0.026,0.12c-0.007,0.055,0.001,0.113-0.007,0.168&#10;&#9;c-5.997,52.409,33.855,71.548,35.558,72.339c1.716,0.796,3.151,2.158,4.017,3.839c1.249,2.361,32.275,58.402,130.038,23.83&#10;&#9;c48.171-17.036,87.794-42.47,122.753-64.908C670.043,741.186,707.085,717.408,748.582,714.815z M799.081,553.664&#10;&#9;c1.337-0.224,32.965-5.239,57.724,12.605c11.19,8.065,19.052,19.396,23.555,33.709c29.914-18.396,62.346-11.659,62.839-11.552&#10;&#9;c10.713,2.333,7.077,18.991-3.658,16.629c-2.27-0.489-54.391-10.926-78.842,43.71c-1.87,4.179-7.073,6.158-11.248,4.292&#10;&#9;c-4.292-1.92-6.212-6.957-4.292-11.248c5.769-12.89,12.886-22.792,20.625-30.404c-2.977-13.799-9.276-24.324-18.837-31.254&#10;&#9;c-18.906-13.706-44.809-9.738-45.092-9.689c-5.391,0.946-8.803-2.841-9.489-7.075C791.685,559.193,793.681,554.562,799.081,553.664z&#10;&#9; M215.514,608.286c-1.443,0.487-33.515,11.719-31.035,44.637c0.805,10.676-16.149,12.281-16.98,1.281&#10;&#9;c-2.795-37.113,26.694-56.841,42.68-62.088c5.001-1.641,8.898,1.56,10.259,5.593C221.796,601.735,220.629,606.589,215.514,608.286z&#10;&#9; M420.441,703.333c-23.103,19.803-19.414,45.267-19.245,46.35c1.673,10.707-14.968,13.599-16.795,2.789&#10;&#9;c-0.246-1.45-5.653-35.825,24.957-62.063c3.749-3.214,8.446-1.628,11.241,1.586C423.392,695.205,424.285,700.038,420.441,703.333z&#10;&#9; M648.284,310.405c1.545-0.537,38.258-12.819,63.846,16.78c7.072,8.181-5.652,19.499-12.881,11.135&#10;&#9;c-18.12-20.965-45.113-11.922-45.388-11.827c-4.445,1.538-9.291-0.813-10.833-5.256&#10;&#9;C641.489,316.795,643.841,311.947,648.284,310.405z M528.762,425.696c0.298-0.873,3.167-8.816,12.108-18.364&#10;&#9;c7.449-7.957,19.985,3.564,12.431,11.635c-6.385,6.821-8.428,12.241-8.455,12.314c-1.876,4.998-6.771,6.207-10.763,4.87&#10;&#9;C530.079,434.809,526.986,430.907,528.762,425.696z M619.511,634.132c-1.505-0.278-32.49-5.587-52.044,29.563&#10;&#9;c7.521,5.477,14.816,12.441,21.496,21.347c6.49,8.654-6.997,19.046-13.62,10.217c-19.44-25.92-52.799-37.951-84.465-31.792&#10;&#9;c-5.061,0.984-10.955,0.612-12.548-5.696c-1.151-4.549,1.588-9.168,6.134-10.331c1.903-0.483,35.054-8.545,68.388,7.499&#10;&#9;c20.602-36.459,54.171-40.733,70.006-37.502c4.908,1.001,6.61,5.688,5.796,9.864C627.849,631.436,624.579,635.069,619.511,634.132z&#10;&#9; M936.731,774.311c-34.264,22.404-69.138,3.473-102.888-14.848c-26.735-14.512-54.373-29.524-84.199-27.655&#10;&#9;c-37.082,2.318-72.401,24.988-113.296,51.237c-6.285,4.034-12.727,8.164-19.333,12.326c4.684,4.046,14.975,9.524,37.132,11.129&#10;&#9;c21.637,1.576,35.647-3.625,49.202-8.646c13.23-4.9,26.913-9.97,45.885-8.246c10.956,0.996,9.379,17.949-1.544,16.956&#10;&#9;c-7.097-0.645-13.228-0.079-19.042,1.153c13.98,7.795,32.489,20.222,45.586,36.912c8.926,11.376,28.8,19.818,51.869,22.033&#10;&#9;c18.895,1.817,36.314-1.068,43.359-7.171c8.331-7.23,19.413,5.705,11.149,12.867c-8.856,7.675-24.511,11.886-43.23,11.886&#10;&#9;c-26.686,0-59.242-7.057-76.542-29.105c-17.125-21.826-46.095-35.878-55.283-39.958c-11.823,4.319-25.212,8.633-43.627,8.633&#10;&#9;c-2.878,0-5.878-0.106-9.012-0.333c-30.189-2.187-44.235-11.399-50.743-18.918c-15.93,9.678-32.907,19.274-51.225,28.048&#10;&#9;c0.893,11.497,5.445,39.966,28.429,57.542c5.226,3.996,10.565,7.974,15.869,11.928c20.235,15.084,39.35,29.332,51.192,43.416&#10;&#9;c4.237,5.04,16.922,18.495,35.719,37.889c19.228,19.827,56.031,17.812,72.638-4.438c6.241-8.363,9.448-18.754,8.832-29.185&#10;&#9;c-0.106-1.786-2.368-19.683-4.152-20.001c-25.076-1.971-50.059-6.56-72.408-18.541c-9.639-5.168-17.904-10.891-28.692-13.704&#10;&#9;c-11.845-3.089-25.743-4.704-34.069-14.745c-8.904-10.737-9.197-40.312,5.119-47.689c4.864-2.506,11.706,1.307,12.132,6.762&#10;&#9;c0.545,6.97-5.82,13.455-5.723,20.879c0.1,7.674,4.891,12.647,12.083,14.796c14.159,4.231,26.334,6.661,39.231,14.174&#10;&#9;c14.302,8.336,32.102,18.709,80.466,21.584c18.124,1.073,39.523,1.022,63.658-0.157c39.746-1.944,69.963-15.123,89.813-39.172&#10;&#9;c27.92-33.826,28.514-80.893,27.44-99.844C943.506,774.518,939.405,774.464,936.731,774.311z M980.464,259.93&#10;&#9;c0,3.444-2.075,6.548-5.256,7.865l-31.007,12.843l-12.843,31.007c-1.317,3.181-4.421,5.256-7.865,5.256s-6.548-2.075-7.865-5.256&#10;&#9;l-12.843-31.007l-31.007-12.843c-3.181-1.317-5.256-4.421-5.256-7.865c0-3.444,2.075-6.548,5.256-7.865l31.007-12.843l12.843-31.007&#10;&#9;c1.317-3.181,4.421-5.256,7.865-5.256s6.548,2.075,7.865,5.256l12.843,31.007l31.007,12.843&#10;&#9;C978.389,253.382,980.464,256.486,980.464,259.93z M197.586,324.725l-44.761-18.539l-18.54-44.761&#10;&#9;c-1.317-3.181-4.421-5.256-7.865-5.256s-6.548,2.075-7.865,5.256l-18.54,44.761l-44.761,18.539C52.075,326.042,50,329.146,50,332.59&#10;&#9;c0,3.444,2.075,6.548,5.256,7.865l44.761,18.54l18.54,44.761c1.317,3.181,4.421,5.256,7.865,5.256s6.548-2.075,7.865-5.256&#10;&#9;l18.54-44.761l44.761-18.54c3.181-1.317,5.256-4.421,5.256-7.865C202.842,329.146,200.767,326.042,197.586,324.725z&#10;&#9; M328.911,867.848l-31.007-12.843l-12.843-31.007c-1.317-3.181-4.421-5.256-7.865-5.256c-3.444,0-6.548,2.075-7.865,5.256&#10;&#9;l-12.843,31.007l-31.007,12.843c-3.181,1.317-5.256,4.421-5.256,7.865c0,3.443,2.075,6.548,5.256,7.865l31.007,12.843l12.843,31.007&#10;&#9;c1.317,3.181,4.421,5.256,7.865,5.256c3.444,0,6.548-2.075,7.865-5.256l12.843-31.007l31.007-12.843&#10;&#9;c3.181-1.317,5.256-4.421,5.256-7.865C334.167,872.269,332.092,869.165,328.911,867.848z M1144.744,796.197l-44.761-18.539&#10;&#9;l-18.54-44.761c-1.317-3.181-4.421-5.256-7.865-5.256s-6.548,2.075-7.865,5.256l-18.54,44.761l-44.761,18.539&#10;&#9;c-3.181,1.317-5.256,4.421-5.256,7.865c0,3.444,2.075,6.548,5.256,7.865l44.761,18.54l18.54,44.761&#10;&#9;c1.317,3.181,4.421,5.256,7.865,5.256s6.548-2.075,7.865-5.256l18.54-44.761l44.761-18.54c3.181-1.317,5.256-4.421,5.256-7.865&#10;&#9;C1150,800.618,1147.925,797.514,1144.744,796.197z" style="fill: rgb(234, 179, 8);"/>
</svg>